<?xml version="1.0" encoding="utf-8"?>
<!-- Generator: Adobe Illustrator 19.0.0, SVG Export Plug-In . SVG Version: 6.00 Build 0)  -->
<svg version="1.1" id="Calque_1" xmlns="http://www.w3.org/2000/svg" xmlns:xlink="http://www.w3.org/1999/xlink" x="0px" y="0px"
	 viewBox="-865.5 -78.7 2761 1250.5" style="enable-background:new -865.5 -78.7 2761 1250.5;" xml:space="preserve">
<style type="text/css">
	.st0{fill:#FFFFFF;}
</style>
<polygon class="st0" points="699.7,71.3 613.3,-78.6 536.1,-78.6 536.1,-55.7 536.1,-32.7 586.8,-32.7 646.7,71.3 536.1,71.3 
	536.1,117.2 647.2,117.2 586.6,222.1 536.1,222 536.1,245 536.1,267.9 613.1,268 700.3,117.2 713.2,94.8 "/>
<polygon class="st0" points="413.2,-78.7 326.5,71.3 313.1,94.5 326.2,117.2 413,267.8 490.2,267.9 490.2,245 490.2,222 439.5,222 
	379.1,117.2 490.2,117.2 490.2,71.3 379.5,71.3 439.7,-32.8 490.2,-32.8 490.2,-55.7 490.2,-78.7 "/>
<g>
	<path class="st0" d="M312.6,324.2c3,4.2,4.5,9.3,4.5,15.1c0,6.1-1.5,10.9-4.6,14.6c-1.7,2.1-4.2,3.9-7.6,5.6
		c5.1,1.8,8.9,4.8,11.4,8.7c2.6,4,3.9,8.8,3.9,14.5c0,5.9-1.5,11.1-4.4,15.8c-1.9,3.1-4.2,5.7-7,7.8c-3.2,2.4-6.9,4.1-11.2,5
		c-4.3,0.9-9,1.3-14,1.3h-44.7v-99.1H287C299,313.8,307.6,317.4,312.6,324.2z M258.8,330.9v21.9h24.1c4.3,0,7.8-0.8,10.5-2.5
		c2.7-1.6,4-4.5,4-8.7c0-4.6-1.8-7.7-5.3-9.1c-3.1-1-7-1.5-11.7-1.5h-21.6V330.9z M258.8,369.1v26.4h24.1c4.3,0,7.6-0.6,10-1.7
		c4.3-2.2,6.5-6.3,6.5-12.4c0-5.2-2.1-8.7-6.3-10.6c-2.3-1.1-5.6-1.6-9.9-1.7H258.8z"/>
	<path class="st0" d="M411.5,331.2H359v21h48.1v17.2H359v25.5h54.9v17.8h-75.1v-99.1h72.7V331.2z"/>
	<path class="st0" d="M503.3,331.2h-52.4v21H499v17.2h-48.1v25.5h54.9v17.8h-75.1v-99.1h72.7L503.3,331.2L503.3,331.2z"/>
	<path class="st0" d="M522.2,313.7h20.4v40.8l38.3-40.8h26.8L567,354.5l42.8,58.3h-26.6l-30.5-43.3l-10,10.1v33.1h-20.4L522.2,313.7
		L522.2,313.7z"/>
	<path class="st0" d="M694.6,331.2h-52.4v21h48.1v17.2h-48.1v25.5H697v17.8h-75.1v-99.1h72.7V331.2z"/>
	<path class="st0" d="M786.4,331.2H734v21h48.1v17.2H734v25.5h54.9v17.8h-75.1v-99.1h72.7v17.6H786.4z"/>
</g>
<g>
	<path class="st0" d="M-76.9,661.3h-123v-44.4H99.5v44.4H-24.1v360h-52.8V661.3z"/>
	<path class="st0" d="M194.3,649.3c0.6,18-12.6,32.4-33.6,32.4c-18.6,0-31.8-14.4-31.8-32.4c0-18.6,13.8-33,33-33
		C181.7,616.3,194.3,630.7,194.3,649.3z M135.5,1021.3V730.9h52.8v290.4H135.5z"/>
	<path class="st0" d="M275.9,809.5c0-30-0.6-54.6-2.4-78.6h46.2l2.4,46.8h1.8c16.2-27.6,43.2-53.4,91.2-53.4
		c39.6,0,69.6,24,82.2,58.2h1.2c9-16.2,20.4-28.8,32.4-37.8c17.4-13.2,36.6-20.4,64.2-20.4c38.4,0,95.4,25.2,95.4,126v171h-51.6
		V856.9c0-55.8-20.4-89.4-63-89.4c-30,0-53.4,22.2-62.4,48c-2.4,7.2-4.2,16.8-4.2,26.4v179.4h-51.6v-174c0-46.2-20.4-79.8-60.6-79.8
		c-33,0-57,26.4-65.4,52.8c-3,7.8-4.2,16.8-4.2,25.8v175.2h-51.6V809.5z"/>
	<path class="st0" d="M805.7,885.7c1.2,71.4,46.8,100.8,99.6,100.8c37.8,0,60.6-6.6,80.4-15l9,37.8c-18.6,8.4-50.4,18-96.6,18
		c-89.4,0-142.8-58.8-142.8-146.4s51.6-156.6,136.2-156.6c94.8,0,120,83.4,120,136.8c0,10.8-1.2,19.2-1.8,24.6H805.7z M960.5,847.9
		c0.6-33.6-13.8-85.8-73.2-85.8c-53.4,0-76.8,49.2-81,85.8H960.5z"/>
	<path class="st0" d="M1076.9,821.5c0-34.2-0.6-63.6-2.4-90.6h46.2l1.8,57h2.4c13.2-39,45-63.6,80.4-63.6c6,0,10.2,0.6,15,1.8v49.8
		c-5.4-1.2-10.8-1.8-18-1.8c-37.2,0-63.6,28.2-70.8,67.8c-1.2,7.2-2.4,15.6-2.4,24.6v154.8h-52.2V821.5z"/>
</g>
</svg>
